<?xml version="1.0" encoding="UTF-8"?>
<svg version="1.1" xmlns="http://www.w3.org/2000/svg" width="125" height="125">
<path d="M0 0 C41.25 0 82.5 0 125 0 C125 41.25 125 82.5 125 125 C83.75 125 42.5 125 0 125 C0 83.75 0 42.5 0 0 Z " fill="#FCFDFE" transform="translate(0,0)"/>
<path d="M0 0 C5.48183327 3.11346841 8.57242872 8.23594507 10.31542969 14.08569336 C10.50008789 14.75866455 10.68474609 15.43163574 10.875 16.125 C11.1829248 17.17409546 11.1829248 17.17409546 11.49707031 18.24438477 C12.09413369 20.284508 12.67309691 22.32910216 13.25 24.375 C13.82948249 26.35529758 14.41207987 28.33469101 15 30.3125 C15.22171875 31.08464844 15.4434375 31.85679688 15.671875 32.65234375 C16.11084676 34.38430961 16.11084676 34.38430961 17.25 35.375 C22.53876744 23.81354946 27.66717667 12.2364251 32.25 0.375 C32.91 0.375 33.57 0.375 34.25 0.375 C34.88615234 1.95474609 34.88615234 1.95474609 35.53515625 3.56640625 C38.8314274 11.69240649 42.24629638 19.72551261 46.02758789 27.63891602 C47.24986493 30.20040209 48.35097907 32.67793722 49.25 35.375 C50.52602233 31.6059031 51.79483463 27.834415 53.0625 24.0625 C53.41892578 23.00998047 53.77535156 21.95746094 54.14257812 20.87304688 C56.18915879 14.77085682 58.04710322 8.66890594 59.64331055 2.43286133 C60.25 0.375 60.25 0.375 61.25 -0.625 C63.78049402 -0.69813567 66.28304837 -0.71747527 68.8125 -0.6875 C69.87887695 -0.68073242 69.87887695 -0.68073242 70.96679688 -0.67382812 C72.72790013 -0.66200864 74.48896036 -0.64407263 76.25 -0.625 C75.67376744 5.57127853 74.27271921 11.04417092 72.3125 16.9375 C72.01037598 17.86570557 71.70825195 18.79391113 71.39697266 19.75024414 C70.72481662 21.81515442 70.04986166 23.87915507 69.37255859 25.94238281 C68.14885826 29.68427639 66.94159594 33.43120175 65.73828125 37.1796875 C61.64094565 49.93365395 57.50750202 62.67348987 53.25 75.375 C50.03316085 72.40530824 48.64171107 69.04991569 47 65.0625 C44.18454333 58.39791078 41.09093952 51.96425085 37.73046875 45.55859375 C36.15491423 42.17052797 35.18305859 38.98434373 34.25 35.375 C33.59 35.375 32.93 35.375 32.25 35.375 C31.97075684 36.24664795 31.69151367 37.1182959 31.40380859 38.01635742 C30.33291109 41.13365259 29.12405818 44.10131432 27.7890625 47.11328125 C27.31726563 48.18126953 26.84546875 49.24925781 26.359375 50.34960938 C25.86953125 51.45111328 25.3796875 52.55261719 24.875 53.6875 C24.39289063 54.77740234 23.91078125 55.86730469 23.4140625 56.99023438 C22.02899473 60.11981005 20.64024262 63.24772022 19.25 66.375 C18.83975586 67.29845215 18.42951172 68.2219043 18.00683594 69.17333984 C17.08826677 71.24072746 16.1693479 73.30795859 15.25 75.375 C14.59 75.375 13.93 75.375 13.25 75.375 C12.85731934 74.13113525 12.46463867 72.88727051 12.06005859 71.60571289 C10.57562103 66.90623532 9.0874004 62.20796242 7.59814453 57.51000977 C6.95912187 55.49242315 6.32106985 53.4745288 5.68408203 51.45629883 C2.52162087 41.43851833 -0.66037167 31.42759314 -4.0859375 21.49609375 C-4.32688141 20.78252213 -4.56782532 20.0689505 -4.81607056 19.33375549 C-5.90014166 15.65118238 -5.90014166 15.65118238 -8.75 13.375 C-15.17301991 12.80953243 -15.17301991 12.80953243 -20.75 15.375 C-21.83223366 18.28504903 -21.83223366 18.28504903 -21.75 21.375 C-18.75296411 25.47451695 -13.35013486 27.02545027 -8.87890625 29.0703125 C-4.5874286 32.231326 -3.47441504 35.44074246 -1.75 40.375 C-1.39671631 41.36193848 -1.04343262 42.34887695 -0.67944336 43.36572266 C0.44618593 46.60560551 1.51083423 49.8604141 2.5625 53.125 C2.93439453 54.23488281 3.30628906 55.34476563 3.68945312 56.48828125 C4.20862305 58.09509766 4.20862305 58.09509766 4.73828125 59.734375 C5.05321533 60.69827148 5.36814941 61.66216797 5.69262695 62.65527344 C6.31007651 65.66814601 6.25312864 67.47383413 5.25 70.375 C-3.47372061 76.48160443 -12.27361259 77.28599021 -22.75 76.375 C-30.0906492 74.78402253 -36.59784002 70.75910183 -40.75 64.375 C-40.67532467 61.58534295 -39.9940107 60.62347771 -38.04296875 58.63671875 C-37.00076172 57.85748047 -37.00076172 57.85748047 -35.9375 57.0625 C-35.25042969 56.53011719 -34.56335938 55.99773437 -33.85546875 55.44921875 C-31.75 54.375 -31.75 54.375 -29.55078125 54.51953125 C-28.65939453 54.94298828 -28.65939453 54.94298828 -27.75 55.375 C-27.42 56.365 -27.09 57.355 -26.75 58.375 C-20.90150597 61.22426632 -13.93240817 61.30320238 -7.75 59.5 C-5.60956775 58.41432103 -5.60956775 58.41432103 -3.75 56.375 C-3.61116233 53.32057124 -3.92407535 51.30095901 -6.0078125 48.96484375 C-9.37581168 46.25383096 -13.01558923 44.20797172 -16.8515625 42.2421875 C-17.59277344 41.86167236 -18.33398438 41.48115723 -19.09765625 41.08911133 C-20.58394695 40.33752114 -22.07857515 39.60213437 -23.58203125 38.88549805 C-30.17759505 35.59747734 -34.72874863 31.16298412 -37.75 24.375 C-38.72745359 18.40689394 -38.37160502 13.57554481 -35.0625 8.4375 C-27.13208351 -1.98746065 -12.19670454 -5.61844355 0 0 Z " fill="#132CCB" transform="translate(44.75,25.625)"/>
<path d="M0 0 C3.04909858 4.57364786 4.36919317 9.70735208 6.05102539 14.91455078 C6.68429221 16.86511947 7.33493615 18.80932773 7.98632812 20.75390625 C8.58670898 22.60435547 8.58670898 22.60435547 9.19921875 24.4921875 C9.56877686 25.61995605 9.93833496 26.74772461 10.3190918 27.90966797 C11.02708352 31.12291976 11.11614179 32.91905737 10 36 C1.27627939 42.10660443 -7.52361259 42.91099021 -18 42 C-25.3406492 40.40902253 -31.84784002 36.38410183 -36 30 C-35.92532467 27.21034295 -35.2440107 26.24847771 -33.29296875 24.26171875 C-32.25076172 23.48248047 -32.25076172 23.48248047 -31.1875 22.6875 C-30.15689453 21.88892578 -30.15689453 21.88892578 -29.10546875 21.07421875 C-27 20 -27 20 -24.80078125 20.14453125 C-24.20652344 20.42683594 -23.61226562 20.70914063 -23 21 C-22.67 21.99 -22.34 22.98 -22 24 C-16.15150597 26.84926632 -9.18240817 26.92820238 -3 25.125 C-0.85956775 24.03932103 -0.85956775 24.03932103 1 22 C1.30110818 19.11095637 1.30110818 19.11095637 0 16 C-2.4591042 13.67533429 -5.18493239 11.8645253 -8 10 C-9.33913906 9.00778815 -10.67421208 8.00998226 -12 7 C-10.68 7 -9.36 7 -8 7 C-5.99598989 6.69169075 -3.99488234 6.36270588 -2 6 C-1.505 6.99 -1.505 6.99 -1 8 C-1.66 8 -2.32 8 -3 8 C-3 8.66 -3 9.32 -3 10 C-2.34 10 -1.68 10 -1 10 C-0.34 10.66 0.32 11.32 1 12 C0.505 6.06 0.505 6.06 0 0 Z " fill="#1F43D5" transform="translate(40,60)"/>
<path d="M0 0 C1.28497537 3.85492611 0.4052209 5.40346836 -0.9375 9.1875 C-1.31777344 10.27417969 -1.69804688 11.36085938 -2.08984375 12.48046875 C-2.39019531 13.31191406 -2.69054687 14.14335938 -3 15 C-5.63382667 12.50365329 -6.96659556 10.53079849 -8 7 C-7.625 4.6875 -7.625 4.6875 -7 3 C-5.35 3 -3.7 3 -2 3 C-2 2.34 -2 1.68 -2 1 C-1.34 0.67 -0.68 0.34 0 0 Z " fill="#1722BE" transform="translate(101,86)"/>
<path d="M0 0 C2.6881249 -0.08164159 5.373723 -0.14079668 8.0625 -0.1875 C8.81466797 -0.21263672 9.56683594 -0.23777344 10.34179688 -0.26367188 C15.66631856 -0.33282151 19.24346434 0.59330666 24 3 C24 3.33 24 3.66 24 4 C22.35 4 20.7 4 19 4 C19 3.34 19 2.68 19 2 C16.36 1.67 13.72 1.34 11 1 C10.67 1.99 10.34 2.98 10 4 C8.35 4 6.7 4 5 4 C5 3.34 5 2.68 5 2 C3.35 1.67 1.7 1.34 0 1 C0 0.67 0 0.34 0 0 Z " fill="#2B4CD5" transform="translate(23,24)"/>
<path d="M0 0 C4.95 0 9.9 0 15 0 C14.67 1.32 14.34 2.64 14 4 C13.67 3.34 13.34 2.68 13 2 C12.31292969 2.0721875 11.62585938 2.144375 10.91796875 2.21875 C9.56638672 2.35796875 9.56638672 2.35796875 8.1875 2.5 C7.29417969 2.5928125 6.40085937 2.685625 5.48046875 2.78125 C3 3 3 3 0 3 C0 2.01 0 1.02 0 0 Z " fill="#070DB4" transform="translate(106,25)"/>
<path d="M0 0 C0.33 0 0.66 0 1 0 C1.1953125 2.05078125 1.390625 4.1015625 1.5859375 6.15234375 C1.72257813 6.76207031 1.85921875 7.37179688 2 8 C2.66 8.33 3.32 8.66 4 9 C4 11.64 4 14.28 4 17 C0.77533922 12.79392072 -0.12460635 10.71614641 -0.0625 5.375 C-0.05347656 4.37210938 -0.04445313 3.36921875 -0.03515625 2.3359375 C-0.02355469 1.56507812 -0.01195312 0.79421875 0 0 Z " fill="#4669DD" transform="translate(7,39)"/>
<path d="M0 0 C0.33 0.66 0.66 1.32 1 2 C1.66 2.33 2.32 2.66 3 3 C1.125 8.75 1.125 8.75 0 11 C-0.66 11 -1.32 11 -2 11 C-1 3.57142857 -1 3.57142857 0 0 Z " fill="#262EBF" transform="translate(105,26)"/>
<path d="M0 0 C2.00993705 3.01490557 2.72623341 5.2149927 3.625 8.6875 C3.88539062 9.68136719 4.14578125 10.67523438 4.4140625 11.69921875 C4.60742188 12.45847656 4.80078125 13.21773437 5 14 C4.01 13.67 3.02 13.34 2 13 C0.5946484 8.56204759 -0.29241839 4.67869431 0 0 Z " fill="#3451CF" transform="translate(40,60)"/>
<path d="M0 0 C1.65 0.99 3.3 1.98 5 3 C4.67 3.99 4.34 4.98 4 6 C1.03 5.505 1.03 5.505 -2 5 C-2 4.01 -2 3.02 -2 2 C-1.34 2 -0.68 2 0 2 C0 1.34 0 0.68 0 0 Z " fill="#1D40D1" transform="translate(35,55)"/>
<path d="M0 0 C2.475 0.495 2.475 0.495 5 1 C5 4.63 5 8.26 5 12 C3.20931427 9.3139714 2.33944209 7.3373411 1.375 4.3125 C1.11460938 3.50425781 0.85421875 2.69601563 0.5859375 1.86328125 C0.39257812 1.24839844 0.19921875 0.63351563 0 0 Z " fill="#2C48D3" transform="translate(38,39)"/>
<path d="M0 0 C6.66287016 1.92482916 6.66287016 1.92482916 9 5 C9.33 5.99 9.66 6.98 10 8 C4.98886765 6.5682479 3.05530451 4.01554307 0 0 Z " fill="#2D55DA" transform="translate(6,91)"/>
<path d="M0 0 C0.99 0 1.98 0 3 0 C2.34 2.97 1.68 5.94 1 9 C0.01 8.67 -0.98 8.34 -2 8 C-1.125 1.125 -1.125 1.125 0 0 Z " fill="#1019BD" transform="translate(105,67)"/>
<path d="M0 0 C0.66 1.32 1.32 2.64 2 4 C1.38125 4.28875 0.7625 4.5775 0.125 4.875 C-2.13325765 5.93720042 -2.13325765 5.93720042 -4 8 C-4.33 6.68 -4.66 5.36 -5 4 C-3.35 2.68 -1.7 1.36 0 0 Z " fill="#2D58D9" transform="translate(9,83)"/>
<path d="M0 0 C0.99 0 1.98 0 3 0 C3.3125 2.25 3.3125 2.25 3 5 C0.5 7.3125 0.5 7.3125 -2 9 C-1.34 6.03 -0.68 3.06 0 0 Z " fill="#252EC1" transform="translate(99,46)"/>
<path d="M0 0 C0.66 0 1.32 0 2 0 C4.29013653 3.4352048 4.17842973 4.985331 4 9 C3.34 9 2.68 9 2 9 C1.34 6.03 0.68 3.06 0 0 Z " fill="#2C43CB" transform="translate(56,92)"/>
<path d="M0 0 C6.4 0.49230769 6.4 0.49230769 9.4375 3.0625 C10.2109375 4.0215625 10.2109375 4.0215625 11 5 C10.01 5.495 10.01 5.495 9 6 C6.8359375 5.00390625 6.8359375 5.00390625 4.375 3.5625 C3.55773437 3.08941406 2.74046875 2.61632813 1.8984375 2.12890625 C1.27195312 1.75636719 0.64546875 1.38382813 0 1 C0 0.67 0 0.34 0 0 Z " fill="#3B5BD5" transform="translate(17,61)"/>
<path d="M0 0 C1.65 0 3.3 0 5 0 C4.67 1.65 4.34 3.3 4 5 C2.35 4.67 0.7 4.34 -1 4 C-0.67 2.68 -0.34 1.36 0 0 Z " fill="#0917C4" transform="translate(94,89)"/>
<path d="M0 0 C0.33 1.98 0.66 3.96 1 6 C0.01 6 -0.98 6 -2 6 C-2 5.01 -2 4.02 -2 3 C-2.66 3 -3.32 3 -4 3 C-4 2.34 -4 1.68 -4 1 C-2 0 -2 0 0 0 Z " fill="#1537D5" transform="translate(41,67)"/>
</svg>
